<?xml version="1.0" encoding="utf-8"?>
<!-- Generator: Adobe Illustrator 25.1.0, SVG Export Plug-In . SVG Version: 6.00 Build 0)  -->
<svg version="1.1" id="Capa_1" xmlns="http://www.w3.org/2000/svg" xmlns:xlink="http://www.w3.org/1999/xlink" x="0px" y="0px"
	 viewBox="0 0 150 40" style="enable-background:new 0 0 150 40;" xml:space="preserve">
<g>
	<polygon points="139.5,2.3 139.5,3.8 146.2,3.8 146.2,25.9 147.7,25.9 147.7,2.3 	"/>
	<polygon points="146.2,35.8 124.1,35.8 32.1,35.8 31,35.8 13.7,35.8 13.7,37.3 31,37.3 32.4,37.3 124.1,37.3 147.7,37.3 
		147.7,29.1 146.2,29.1 	"/>
	<polygon points="3.8,3.8 25.9,3.8 112.6,3.8 115.2,3.8 116.3,3.8 136.3,3.8 136.3,2.3 116.3,2.3 115.2,2.3 115.1,2.3 112.6,2.3 
		25.9,2.3 2.3,2.3 2.3,10.5 3.8,10.5 	"/>
	<polygon points="3.8,13.7 2.3,13.7 2.3,37.3 10.5,37.3 10.5,35.8 3.8,35.8 	"/>
</g>
<g>
	<path d="M55.2,23.9v-8h4.1c0.8,0,1.5,0.2,1.8,0.6s0.6,0.9,0.6,1.5c0,0.4-0.1,0.8-0.3,1.1s-0.6,0.5-1,0.7c1,0.2,1.6,0.9,1.6,1.9
		c0,0.6-0.2,1.1-0.5,1.6s-1.1,0.7-2.3,0.7H55.2z M57.4,19h1.1c0.3,0,0.5-0.1,0.6-0.2s0.2-0.3,0.2-0.5c0-0.4-0.3-0.7-0.8-0.7h-1.1V19
		z M57.4,22.2h1.2c0.3,0,0.5-0.1,0.7-0.2s0.2-0.3,0.2-0.5s-0.1-0.4-0.2-0.5s-0.4-0.2-0.7-0.2h-1.1V22.2z"/>
	<path d="M68.8,23.9h-2.2c-0.1-0.3-0.1-0.5-0.1-0.8c-0.4,0.6-1.1,1-1.9,1c-0.7,0-1.2-0.2-1.6-0.5s-0.5-0.8-0.5-1.2
		c0-0.6,0.3-1.1,0.9-1.5s1.6-0.6,3-0.7v-0.1c0-0.3-0.1-0.4-0.2-0.5s-0.3-0.1-0.5-0.1c-0.5,0-0.8,0.2-0.9,0.7l-2.1-0.2
		c0.3-1.2,1.3-1.9,3.1-1.9c0.5,0,0.9,0,1.3,0.1s0.7,0.2,1,0.4s0.4,0.4,0.5,0.6s0.1,0.7,0.1,1.3v2.4C68.6,23.2,68.7,23.6,68.8,23.9z
		 M66.4,21.1c-1,0.1-1.5,0.4-1.5,1c0,0.4,0.2,0.5,0.6,0.5c0.2,0,0.5-0.1,0.6-0.2s0.3-0.5,0.3-1V21.1z"/>
	<path d="M75.7,23.9h-2.3v-3.8c0-0.3,0-0.5-0.1-0.6s-0.2-0.1-0.4-0.1c-0.4,0-0.6,0.3-0.6,0.9v3.6h-2.3v-6H72v0.8
		c0.3-0.6,0.9-1,1.7-1c0.4,0,0.8,0.1,1.1,0.2s0.5,0.4,0.6,0.6s0.2,0.7,0.2,1.4V23.9z"/>
	<path d="M82.7,23.9h-2.3v-3.8c0-0.3,0-0.5-0.1-0.6s-0.2-0.1-0.4-0.1c-0.4,0-0.6,0.3-0.6,0.9v3.6h-2.3v-6h2.2v0.8
		c0.3-0.6,0.9-1,1.7-1c0.4,0,0.8,0.1,1.1,0.2s0.5,0.4,0.6,0.6s0.2,0.7,0.2,1.4V23.9z"/>
	<path d="M87.9,21.8l2.2,0.1c-0.1,0.6-0.5,1.1-1,1.5s-1.2,0.6-2.1,0.6c-1,0-1.8-0.3-2.4-0.9s-0.9-1.3-0.9-2.2c0-0.9,0.3-1.6,0.9-2.3
		s1.4-0.9,2.4-0.9c1,0,1.7,0.3,2.3,0.9s0.9,1.4,0.9,2.4c0,0.1,0,0.2,0,0.3h-4c0,0.4,0.1,0.7,0.2,0.8s0.4,0.3,0.7,0.3
		C87.5,22.5,87.8,22.3,87.9,21.8z M87.7,20.3c0-0.4-0.1-0.7-0.2-0.8c-0.2-0.1-0.4-0.2-0.6-0.2c-0.6,0-0.8,0.3-0.8,1H87.7z"/>
	<path d="M93.2,23.9H91v-6h1.9v1.2c0.2-0.9,0.7-1.3,1.6-1.3c0.1,0,0.2,0,0.3,0V20c-0.2,0-0.3-0.1-0.4-0.1c-0.8,0-1.2,0.4-1.2,1.3
		V23.9z"/>
</g>
</svg>
