<?xml version="1.0" encoding="utf-8"?>
<!-- Generator: Adobe Illustrator 25.1.0, SVG Export Plug-In . SVG Version: 6.00 Build 0)  -->
<svg version="1.1" id="Capa_1" xmlns="http://www.w3.org/2000/svg" xmlns:xlink="http://www.w3.org/1999/xlink" x="0px" y="0px"
	 viewBox="0 0 40 40" style="enable-background:new 0 0 40 40;" xml:space="preserve">
<style type="text/css">
	.st0{enable-background:new    ;}
</style>
<g>
	<polygon points="29.3,4 36,4 36,26.1 37.5,26.1 37.5,2.5 29.3,2.5 	"/>
	<polygon points="4,10.7 4,4 26.1,4 26.1,2.5 2.5,2.5 2.5,10.7 	"/>
	<polygon points="36,29.3 36,36 13.9,36 13.9,37.5 37.5,37.5 37.5,29.3 	"/>
	<polygon points="10.7,36 4,36 4,13.9 2.5,13.9 2.5,37.5 10.7,37.5 	"/>
</g>
<g class="st0">
	<path d="M9.7,21.1V22H6.9v-3.7h2.8v0.8H8v0.5h1.3v0.8H8V21h1.7V21.1z"/>
	<path d="M12.8,22h-1v-0.4c-0.1,0.3-0.4,0.4-0.7,0.4s-0.6-0.1-0.8-0.4C10.1,21.4,10,21,10,20.5c0-0.4,0.1-0.8,0.3-1
		c0.2-0.3,0.5-0.4,0.8-0.4s0.5,0.1,0.7,0.3v-1.2h1.1V22H12.8z M11.7,20.3c0-0.2-0.1-0.4-0.3-0.4c-0.1,0-0.2,0.1-0.3,0.2
		c0,0.2-0.1,0.3-0.1,0.6c0,0.4,0.1,0.7,0.3,0.7c0.1,0,0.2,0,0.2-0.1c0.1-0.1,0.1-0.2,0.1-0.3v-0.7H11.7z"/>
	<path d="M16,19.3V22h-1v-0.4c-0.1,0.3-0.4,0.5-0.8,0.5c-0.3,0-0.5-0.1-0.6-0.2s-0.2-0.3-0.2-0.6v-2h1.1V21c0,0.1,0,0.2,0,0.2
		s0.1,0.1,0.2,0.1c0.1,0,0.2,0,0.2-0.1S15,21,15,20.9v-1.6C15,19.3,16,19.3,16,19.3z"/>
	<path d="M18.2,20.9l0.9,0.1c0,0.3-0.2,0.6-0.4,0.8c-0.2,0.2-0.5,0.3-0.9,0.3s-0.8-0.1-1-0.4c-0.3-0.3-0.4-0.6-0.4-1s0.1-0.8,0.4-1
		s0.6-0.4,1-0.4s0.7,0.1,0.9,0.3c0.2,0.2,0.4,0.5,0.4,0.8l-0.9,0.1c0-0.3-0.1-0.4-0.3-0.4c-0.1,0-0.2,0.1-0.3,0.2
		c-0.1,0.1-0.1,0.3-0.1,0.5s0,0.4,0.1,0.5s0.1,0.2,0.3,0.2C18,21.3,18.1,21.2,18.2,20.9z"/>
	<path d="M22.2,22h-1c0-0.1,0-0.2,0-0.4C21,21.9,20.7,22,20.3,22c-0.3,0-0.6-0.1-0.7-0.2c-0.2-0.2-0.2-0.4-0.2-0.6
		c0-0.3,0.1-0.5,0.4-0.7s0.7-0.3,1.4-0.3v-0.1c0-0.1,0-0.2-0.1-0.2s-0.1-0.1-0.2-0.1c-0.2,0-0.4,0.1-0.4,0.3l-1-0.1
		c0.1-0.6,0.6-0.9,1.4-0.9c0.2,0,0.4,0,0.6,0.1s0.3,0.1,0.4,0.2s0.2,0.2,0.2,0.3c0,0.1,0.1,0.3,0.1,0.6v1.1
		C22.1,21.7,22.1,21.9,22.2,22z M21.1,20.7c-0.5,0-0.7,0.2-0.7,0.4c0,0.2,0.1,0.2,0.3,0.2c0.1,0,0.2,0,0.3-0.1
		C21.1,21.1,21.1,21,21.1,20.7C21.1,20.7,21.1,20.7,21.1,20.7z"/>
	<path d="M24.3,20.9l0.9,0.1c0,0.3-0.2,0.6-0.4,0.8c-0.2,0.2-0.5,0.3-0.9,0.3s-0.8-0.1-1-0.4c-0.3-0.3-0.4-0.6-0.4-1s0.1-0.8,0.4-1
		s0.6-0.4,1-0.4s0.7,0.1,0.9,0.3c0.2,0.2,0.4,0.5,0.4,0.8l-0.9,0.1c0-0.3-0.1-0.4-0.3-0.4c-0.1,0-0.2,0.1-0.3,0.2
		c-0.1,0.1-0.1,0.3-0.1,0.5s0,0.4,0.1,0.5s0.1,0.2,0.3,0.2C24.1,21.3,24.2,21.2,24.3,20.9z"/>
	<path d="M26.6,18.2V19h-1.1v-0.8H26.6z M26.6,19.3V22h-1.1v-2.7H26.6z"/>
	<path d="M28.5,22.1c-0.5,0-0.8-0.1-1.1-0.4c-0.3-0.3-0.4-0.6-0.4-1s0.1-0.7,0.4-1s0.6-0.4,1.1-0.4c0.4,0,0.8,0.1,1.1,0.4
		c0.3,0.3,0.4,0.6,0.4,1s-0.1,0.7-0.4,1C29.3,21.9,28.9,22.1,28.5,22.1z M28,18.5l1.2-0.6l0.2,0.5l-1.3,0.4L28,18.5z M28.5,21.4
		c0.2,0,0.3-0.1,0.3-0.3c0-0.2,0.1-0.4,0.1-0.5c0-0.3,0-0.4-0.1-0.6c-0.1-0.1-0.1-0.2-0.3-0.2c-0.1,0-0.2,0.1-0.3,0.2
		c-0.1,0.1-0.1,0.3-0.1,0.6c0,0.3,0,0.5,0.1,0.6C28.3,21.4,28.4,21.4,28.5,21.4z"/>
	<path d="M33.1,22H32v-1.7c0-0.1,0-0.2-0.1-0.3c0,0-0.1-0.1-0.2-0.1c-0.2,0-0.3,0.1-0.3,0.4V22h-1.1v-2.7h1v0.4
		c0.1-0.3,0.4-0.4,0.8-0.4c0.2,0,0.4,0,0.5,0.1s0.2,0.2,0.3,0.3C33,19.8,33,20,33,20.3V22H33.1z"/>
</g>
</svg>
