<?xml version="1.0" encoding="utf-8"?>
<!-- Generator: Adobe Illustrator 25.1.0, SVG Export Plug-In . SVG Version: 6.00 Build 0)  -->
<svg version="1.1" id="Capa_1" xmlns="http://www.w3.org/2000/svg" xmlns:xlink="http://www.w3.org/1999/xlink" x="0px" y="0px"
	 viewBox="0 0 40 40" style="enable-background:new 0 0 40 40;" xml:space="preserve">
<style type="text/css">
	.st0{enable-background:new    ;}
</style>
<g>
	<polygon points="29.3,4 36,4 36,26.1 37.5,26.1 37.5,2.5 29.3,2.5 	"/>
	<polygon points="4,10.7 4,4 26.1,4 26.1,2.5 2.5,2.5 2.5,10.7 	"/>
	<polygon points="36,29.3 36,36 13.9,36 13.9,37.5 37.5,37.5 37.5,29.3 	"/>
	<polygon points="10.7,36 4,36 4,13.9 2.5,13.9 2.5,37.5 10.7,37.5 	"/>
</g>
<g class="st0">
	<path d="M7.8,21v0.9H5v-3.7h2.8V19H6.1v0.5h1.3v0.8H6.1V21H7.8z"/>
	<path d="M11,21.8H9.8L9.3,21l-0.5,0.9H7.9l1-1.4L8,19.1h1.2l0.3,0.5c0,0,0,0,0,0.1c0,0,0,0,0,0.1c0,0,0-0.1,0.1-0.1c0,0,0,0,0-0.1
		l0.3-0.5h0.9L10,20.3L11,21.8z"/>
	<path d="M12.3,22.7h-1.1v-3.6h1v0.4c0.1-0.3,0.4-0.4,0.8-0.4c0.3,0,0.6,0.1,0.8,0.4s0.3,0.6,0.3,1s-0.1,0.8-0.3,1s-0.4,0.4-0.7,0.4
		s-0.5-0.1-0.7-0.3v1.1H12.3z M12.3,20.8c0,0.1,0,0.2,0.1,0.3c0.1,0.1,0.1,0.1,0.2,0.1c0.1,0,0.2-0.1,0.3-0.2c0-0.1,0.1-0.3,0.1-0.5
		c0-0.3,0-0.5-0.1-0.6s-0.1-0.2-0.2-0.2c-0.1,0-0.1,0-0.2,0.1s-0.1,0.1-0.1,0.3v0.7H12.3z"/>
	<path d="M16.2,20.9l1,0.1c-0.1,0.3-0.2,0.5-0.5,0.7c-0.2,0.2-0.6,0.3-1,0.3c-0.5,0-0.8-0.1-1.1-0.4s-0.4-0.6-0.4-1s0.1-0.8,0.4-1
		s0.6-0.4,1.1-0.4c0.4,0,0.8,0.1,1.1,0.4c0.3,0.3,0.4,0.6,0.4,1.1c0,0,0,0.1,0,0.2h-1.8c0,0.2,0,0.3,0.1,0.4s0.2,0.1,0.3,0.1
		C16.1,21.2,16.2,21.1,16.2,20.9z M16.2,20.1c0-0.2,0-0.3-0.1-0.4s-0.2-0.1-0.3-0.1c-0.3,0-0.4,0.2-0.4,0.5H16.2z"/>
	<path d="M18.7,21.8h-1v-2.7h0.9v0.6c0.1-0.4,0.3-0.6,0.7-0.6c0,0,0.1,0,0.2,0v1c-0.1,0-0.1,0-0.2,0c-0.4,0-0.5,0.2-0.5,0.6v1.1
		H18.7z"/>
	<path d="M20.8,18.1v0.8h-1.1v-0.8H20.8z M20.8,19.1v2.7h-1.1v-2.7H20.8z"/>
	<path d="M23.2,20.9l1,0.1c-0.1,0.3-0.2,0.5-0.5,0.7c-0.2,0.2-0.6,0.3-1,0.3c-0.5,0-0.8-0.1-1.1-0.4c-0.3-0.3-0.4-0.6-0.4-1
		s0.1-0.8,0.4-1s0.6-0.4,1.1-0.4c0.4,0,0.8,0.1,1.1,0.4c0.3,0.3,0.4,0.6,0.4,1.1c0,0,0,0.1,0,0.2h-1.8c0,0.2,0,0.3,0.1,0.4
		s0.2,0.1,0.3,0.1C23,21.2,23.2,21.1,23.2,20.9z M23.1,20.1c0-0.2,0-0.3-0.1-0.4s-0.2-0.1-0.3-0.1c-0.3,0-0.4,0.2-0.4,0.5H23.1z"/>
	<path d="M27.3,21.8h-1.1v-1.7c0-0.1,0-0.2-0.1-0.3c0,0-0.1-0.1-0.2-0.1c-0.2,0-0.3,0.1-0.3,0.4v1.6h-1.1V19h1v0.4
		c0.1-0.3,0.4-0.4,0.8-0.4c0.2,0,0.4,0,0.5,0.1s0.2,0.2,0.3,0.3c0.1,0.1,0.1,0.3,0.1,0.6v1.8H27.3z"/>
	<path d="M29.5,20.7l0.9,0.1c0,0.3-0.2,0.6-0.4,0.8c-0.2,0.2-0.5,0.3-0.9,0.3s-0.8-0.1-1-0.4c-0.3-0.3-0.4-0.6-0.4-1s0.1-0.8,0.4-1
		s0.6-0.4,1-0.4s0.7,0.1,0.9,0.3c0.2,0.2,0.4,0.5,0.4,0.8l-0.9,0.1c0-0.3-0.1-0.4-0.3-0.4c-0.1,0-0.2,0.1-0.3,0.2
		c-0.1,0.1-0.1,0.3-0.1,0.5s0,0.4,0.1,0.5s0.1,0.2,0.3,0.2C29.4,21.1,29.5,21,29.5,20.7z"/>
	<path d="M31.8,18.1v0.8h-1.1v-0.8H31.8z M31.8,19.1v2.7h-1.1v-2.7H31.8z"/>
	<path d="M35.1,21.8h-1c0-0.1,0-0.2,0-0.4c-0.2,0.3-0.5,0.4-0.9,0.4c-0.3,0-0.6-0.1-0.7-0.2c-0.2-0.2-0.2-0.4-0.2-0.6
		c0-0.3,0.1-0.5,0.4-0.7c0.3-0.2,0.7-0.3,1.4-0.3v0c0-0.1,0-0.2-0.1-0.2s-0.1-0.1-0.2-0.1c-0.2,0-0.4,0.1-0.4,0.3l-1-0.1
		c0.1-0.6,0.6-0.9,1.4-0.9c0.2,0,0.4,0,0.6,0.1s0.3,0.1,0.4,0.2c0.1,0.1,0.2,0.2,0.2,0.3c0,0.1,0.1,0.3,0.1,0.6v1.1
		C35,21.5,35.1,21.7,35.1,21.8z M34,20.6c-0.5,0-0.7,0.2-0.7,0.4c0,0.2,0.1,0.2,0.3,0.2c0.1,0,0.2,0,0.3-0.1S34,20.9,34,20.6
		C34,20.6,34,20.6,34,20.6z"/>
</g>
</svg>
