<?xml version="1.0" encoding="utf-8"?>
<!-- Generator: Adobe Illustrator 25.1.0, SVG Export Plug-In . SVG Version: 6.00 Build 0)  -->
<svg version="1.1" id="Capa_1" xmlns="http://www.w3.org/2000/svg" xmlns:xlink="http://www.w3.org/1999/xlink" x="0px" y="0px"
	 viewBox="0 0 100 100" style="enable-background:new 0 0 100 100;" xml:space="preserve">
<style type="text/css">
	.st0{fill:#F9B233;}
	.st1{fill:none;}
</style>
<path class="st0" d="M66.4,57.9H41.6c-1.9,0-3.4,1.5-3.4,3.4c0,1.9,1.5,3.4,3.4,3.4h24.8c1.9,0,3.4-1.5,3.4-3.4
	C69.8,59.4,68.3,57.9,66.4,57.9z"/>
<line class="st1" x1="38" y1="39.3" x2="38" y2="39.3"/>
<path class="st0" d="M38.8,37.1c0-0.8-0.3-1.5-0.8-2.1v-0.1L25.1,19.6l0,0c-0.6-0.7-1.5-1.2-2.6-1.2c-1.9,0-3.4,1.5-3.4,3.4
	c0,0.8,0.3,1.6,0.8,2.2l0,0l11,13l-11,13l0,0c-0.5,0.6-0.8,1.3-0.8,2.2c0,1.9,1.5,3.4,3.4,3.4c1,0,1.9-0.5,2.6-1.2l0,0L38,39.3v-0.1
	C38.4,38.6,38.8,37.9,38.8,37.1z"/>
</svg>
