<?xml version="1.0" encoding="utf-8"?>
<!-- Generator: Adobe Illustrator 25.1.0, SVG Export Plug-In . SVG Version: 6.00 Build 0)  -->
<svg version="1.1" id="Capa_1" xmlns="http://www.w3.org/2000/svg" xmlns:xlink="http://www.w3.org/1999/xlink" x="0px" y="0px"
	 viewBox="0 0 40 40" style="enable-background:new 0 0 40 40;" xml:space="preserve">
<style type="text/css">
	.st0{enable-background:new    ;}
</style>
<g>
	<polygon points="29.3,4 36,4 36,26.1 37.5,26.1 37.5,2.5 29.3,2.5 	"/>
	<polygon points="4,10.7 4,4 26.1,4 26.1,2.5 2.5,2.5 2.5,10.7 	"/>
	<polygon points="36,29.3 36,36 13.9,36 13.9,37.5 37.5,37.5 37.5,29.3 	"/>
	<polygon points="10.7,36 4,36 4,13.9 2.5,13.9 2.5,37.5 10.7,37.5 	"/>
</g>
<g class="st0">
	<path d="M9.9,20v1.3H8.8v-3.7h1.6c0.4,0,0.7,0,0.9,0.1s0.4,0.2,0.5,0.4c0.1,0.2,0.2,0.4,0.2,0.6c0,0.3-0.1,0.6-0.4,0.8
		c-0.2,0.2-0.6,0.3-1,0.3H9.9V20z M9.9,19.2h0.4c0.3,0,0.5-0.1,0.5-0.4c0-0.2-0.2-0.3-0.5-0.3H9.9V19.2z"/>
	<path d="M13.3,21.4h-1v-2.7h0.9v0.6c0.1-0.4,0.3-0.6,0.7-0.6c0,0,0.1,0,0.2,0v1c-0.1,0-0.1,0-0.2,0c-0.4,0-0.5,0.2-0.5,0.6
		L13.3,21.4L13.3,21.4z"/>
	<path d="M15.7,21.4c-0.5,0-0.8-0.1-1.1-0.4s-0.4-0.6-0.4-1s0.1-0.7,0.4-1c0.3-0.3,0.6-0.4,1.1-0.4c0.4,0,0.8,0.1,1.1,0.4
		s0.4,0.6,0.4,1s-0.1,0.7-0.4,1S16.1,21.4,15.7,21.4z M15.7,20.8c0.2,0,0.3-0.1,0.3-0.3s0.1-0.4,0.1-0.5c0-0.3,0-0.4-0.1-0.6
		c-0.1-0.1-0.1-0.2-0.3-0.2c-0.1,0-0.2,0.1-0.3,0.2s-0.1,0.3-0.1,0.6c0,0.3,0,0.5,0.1,0.6S15.6,20.8,15.7,20.8z"/>
	<path d="M20.1,18.6l-1.1,3c-0.1,0.2-0.2,0.4-0.4,0.5c-0.2,0.1-0.4,0.2-0.7,0.2c-0.1,0-0.3,0-0.5,0v-0.8c0.1,0,0.3,0,0.4,0
		c0.3,0,0.5-0.1,0.5-0.2c0,0,0-0.1,0-0.2l-1-2.5h1.1l0.5,1.5l0.5-1.5H20.1z"/>
	<path d="M22,20.4l1,0.1c-0.1,0.3-0.2,0.5-0.5,0.7c-0.2,0.2-0.6,0.3-1,0.3c-0.5,0-0.8-0.1-1.1-0.4c-0.3-0.3-0.4-0.6-0.4-1
		s0.1-0.8,0.4-1c0.3-0.3,0.6-0.4,1.1-0.4c0.4,0,0.8,0.1,1.1,0.4c0.3,0.3,0.4,0.6,0.4,1.1c0,0,0,0.1,0,0.2h-1.8c0,0.2,0,0.3,0.1,0.4
		s0.2,0.1,0.3,0.1C21.9,20.7,22,20.6,22,20.4z M22,19.7c0-0.2,0-0.3-0.1-0.4s-0.2-0.1-0.3-0.1c-0.3,0-0.4,0.2-0.4,0.5H22z"/>
	<path d="M25.1,20.3l0.9,0.1c0,0.3-0.2,0.6-0.4,0.8c-0.2,0.2-0.5,0.3-0.9,0.3s-0.8-0.1-1-0.4c-0.3-0.3-0.4-0.6-0.4-1s0.1-0.8,0.4-1
		s0.6-0.4,1-0.4s0.7,0.1,0.9,0.3c0.2,0.2,0.4,0.5,0.4,0.8l-0.9,0.1c0-0.3-0.1-0.4-0.3-0.4c-0.1,0-0.2,0.1-0.3,0.2
		c-0.1,0.1-0.1,0.3-0.1,0.5s0,0.4,0.1,0.5s0.1,0.2,0.3,0.2C25,20.7,25.1,20.5,25.1,20.3z"/>
	<path d="M28,18.6v0.7h-0.5v1c0,0.1,0,0.2,0.1,0.2s0.1,0,0.2,0s0.2,0,0.3,0v0.8c-0.2,0-0.4,0.1-0.6,0.1c-0.3,0-0.6-0.1-0.7-0.2
		c-0.2-0.1-0.2-0.4-0.2-0.7v-0.3v-0.9H26v-0.7h0.4v-0.9h1v0.9H28z"/>
	<path d="M29.7,21.4c-0.5,0-0.8-0.1-1.1-0.4c-0.3-0.3-0.4-0.6-0.4-1s0.1-0.7,0.4-1s0.6-0.4,1.1-0.4c0.4,0,0.8,0.1,1.1,0.4
		c0.3,0.3,0.4,0.6,0.4,1s-0.1,0.7-0.4,1C30.5,21.3,30.2,21.4,29.7,21.4z M29.7,20.8c0.2,0,0.3-0.1,0.3-0.3c0-0.2,0.1-0.4,0.1-0.5
		c0-0.3,0-0.4-0.1-0.6c-0.1-0.1-0.1-0.2-0.3-0.2c-0.1,0-0.2,0.1-0.3,0.2c-0.1,0.1-0.1,0.3-0.1,0.6c0,0.3,0,0.5,0.1,0.6
		C29.5,20.7,29.6,20.8,29.7,20.8z"/>
</g>
</svg>
